# xmcd CD database file generated by grip 1.8
# 
# Track frame offsets:
#       150
#       20095
#       42070
#       61268
#       75968
#       95695
#       113540
#       125668
#       152698
# 
# Disc length: 2341 seconds
# 
# Revision: 3
# Processed by: cddbd v1.4b41PL1 Copyright (c) Steve Scherf et al.
# Submitted via: grip 1.8
# 
DISCID=65092309
DTITLE=John Mayall - Gold
DYEAR=1900
DGENRE=
TTITLE0=Road Show
TTITLE1=A Big Man
TTITLE2=John Lee Boogie
TTITLE3=Why Worry
TTITLE4=Reaching For A Mountain
TTITLE5=Mama Talk To Your Daughter
TTITLE6=Lost And Gone
TTITLE7=Mexico City
TTITLE8=Baby What You Want Me To Do
EXTD=
EXTT0=
EXTT1=
EXTT2=
EXTT3=
EXTT4=
EXTT5=
EXTT6=
EXTT7=
EXTT8=
PLAYORDER=
